<svg width="138" height="55" viewBox="0 0 138 55" fill="none" xmlns="http://www.w3.org/2000/svg">
<path d="M73.146 47.6902C73.146 48.6447 72.3593 49.4304 71.3738 49.4304C70.3883 49.4304 69.6016 48.6447 69.6016 47.6902C69.6016 46.7357 70.3883 45.95 71.3738 45.95C72.3593 45.95 73.146 46.7357 73.146 47.6902Z" fill="white" stroke="white"/>
<ellipse cx="88.2532" cy="47.6902" rx="2.27222" ry="2.24025" fill="white"/>
<path d="M121.713 34.9274C122.184 32.4695 123.319 31.2406 125.12 31.2406C126.089 31.2406 126.892 31.5683 127.53 32.2237C128.194 32.8792 128.638 33.7804 128.859 34.9274C128.887 35.0639 128.97 35.7057 129.108 36.8527C129.275 37.9997 129.455 39.2287 129.649 40.5395C129.87 41.8504 130.106 43.1886 130.355 44.5541C130.604 45.8922 130.895 47.0119 131.227 47.9132C131.56 48.8144 131.878 49.265 132.183 49.265C132.737 49.265 133.263 48.0224 133.762 45.5372C134.288 43.052 134.593 40.8809 134.676 39.0239C134.842 34.3539 135.105 31.6502 135.465 30.9129C135.853 30.1482 136.283 29.7659 136.753 29.7659C137.584 29.7659 138 30.1755 138 30.9948C138 31.2133 137.903 31.5137 137.709 31.896C137.515 32.2784 137.335 34.6816 137.169 39.1058C137.114 40.444 136.92 42.1098 136.587 44.1035C136.255 46.1244 135.895 47.681 135.507 48.7734C134.787 50.7397 133.707 51.7229 132.266 51.7229C130.854 51.7229 129.801 50.9036 129.108 49.265C128.222 47.1621 127.474 43.5573 126.865 38.4503C126.643 36.5114 126.505 35.5009 126.449 35.419C126.228 34.272 125.785 33.6985 125.12 33.6985C124.704 33.6985 124.4 34.1354 124.206 35.0093C124.039 35.8559 123.804 38.027 123.499 41.5227C123.195 44.991 123.042 47.3943 123.042 48.7324C123.042 50.0706 123.112 51.0128 123.25 51.559C123.389 52.1052 123.458 52.4329 123.458 52.5421C123.458 53.3614 123.042 53.7711 122.211 53.7711C121.602 53.7711 121.173 53.2932 120.923 52.3373C120.674 51.3815 120.549 50.2072 120.549 48.8144C120.549 47.4216 120.702 44.9227 121.006 41.3179C121.339 37.6857 121.574 35.5555 121.713 34.9274Z" fill="white"/>
<path d="M102.248 42.3008C103.079 42.3008 103.494 42.7105 103.494 43.5298C103.494 43.8575 103.425 44.1852 103.287 44.5129C103.148 44.8406 103.079 45.2366 103.079 45.7009C103.079 46.1379 103.217 46.5885 103.494 47.0527C103.799 47.517 104.228 48.0222 104.782 48.5684C105.336 49.0873 106.167 49.5379 107.275 49.9202C108.383 50.3026 109.491 50.4938 110.599 50.4938C111.735 50.4938 112.704 50.207 113.508 49.6335C114.311 49.06 114.713 48.2544 114.713 47.2166C114.713 45.4961 114.311 44.1169 113.508 43.0792C112.704 42.0141 111.583 41.4816 110.142 41.4816C109.477 41.4816 108.799 41.6864 108.106 42.096C107.442 42.5057 107.012 42.7105 106.818 42.7105C105.987 42.7105 105.572 42.3008 105.572 41.4816C105.572 40.9627 106.043 40.4301 106.985 39.8839C107.954 39.3104 109.007 39.0237 110.142 39.0237C112.247 39.0237 113.951 39.7884 115.253 41.3177C116.555 42.8197 117.206 44.786 117.206 47.2166C117.206 48.9644 116.541 50.3572 115.211 51.395C113.909 52.4327 112.511 52.9516 111.015 52.9516C109.519 52.9516 108.148 52.7741 106.901 52.4191C105.683 52.0367 104.699 51.5725 103.951 51.0263C103.204 50.4528 102.553 49.8383 101.999 49.1829C101.057 48.0359 100.586 46.9845 100.586 46.0286C100.586 45.0455 100.738 44.1852 101.043 43.4479C101.348 42.6832 101.749 42.3008 102.248 42.3008Z" fill="white"/>
<path d="M41.0491 34.9274C41.52 32.4695 42.6557 31.2406 44.4561 31.2406C45.4256 31.2406 46.2289 31.5683 46.866 32.2237C47.5308 32.8792 47.974 33.7804 48.1956 34.9274C48.2233 35.0639 48.3064 35.7057 48.4449 36.8527C48.6111 37.9997 48.7911 39.2287 48.985 40.5395C49.2066 41.8504 49.442 43.1886 49.6913 44.5541C49.9406 45.8922 50.2315 47.0119 50.5639 47.9132C50.8963 48.8144 51.2148 49.265 51.5195 49.265C52.0735 49.265 52.5998 48.0224 53.0984 45.5372C53.6247 43.052 53.9294 40.8809 54.0125 39.0239C54.1786 34.3539 54.4418 31.6502 54.8019 30.9129C55.1897 30.1482 55.619 29.7659 56.0899 29.7659C56.9209 29.7659 57.3364 30.1755 57.3364 30.9948C57.3364 31.2133 57.2394 31.5137 57.0455 31.896C56.8516 32.2784 56.6716 34.6816 56.5054 39.1058C56.45 40.444 56.2561 42.1098 55.9237 44.1035C55.5913 46.1244 55.2312 47.681 54.8434 48.7734C54.1233 50.7397 53.043 51.7229 51.6026 51.7229C50.1899 51.7229 49.1374 50.9036 48.4449 49.265C47.5585 47.1621 46.8106 43.5573 46.2012 38.4503C45.9796 36.5114 45.8411 35.5009 45.7857 35.419C45.5641 34.272 45.1209 33.6985 44.4561 33.6985C44.0407 33.6985 43.736 34.1354 43.5421 35.0093C43.3759 35.8559 43.1404 38.027 42.8357 41.5227C42.531 44.991 42.3787 47.3943 42.3787 48.7324C42.3787 50.0706 42.4479 51.0128 42.5864 51.559C42.7249 52.1052 42.7942 52.4329 42.7942 52.5421C42.7942 53.3614 42.3787 53.7711 41.5477 53.7711C40.9383 53.7711 40.509 53.2932 40.2597 52.3373C40.0104 51.3815 39.8857 50.2072 39.8857 48.8144C39.8857 47.4216 40.0381 44.9227 40.3428 41.3179C40.6752 37.6857 40.9106 35.5555 41.0491 34.9274Z" fill="white"/>
<path d="M6.23237 40.3757L11.6338 40.2528C12.4647 40.2528 12.8802 40.6624 12.8802 41.4817C12.8802 42.2191 12.4647 42.6287 11.6338 42.7107C10.8305 42.7926 9.03002 42.8336 6.23237 42.8336C5.73378 42.8336 5.11055 42.7243 4.36266 42.5058C3.61478 42.2874 3.07464 42.0416 2.74224 41.7685C3.10234 45.2641 3.68402 48.6369 4.48731 51.8867C4.54271 52.2144 4.57041 52.4329 4.57041 52.5421C4.57041 53.3614 4.15492 53.7711 3.32393 53.7711C2.65915 53.7711 2.2298 53.3614 2.03591 52.5421C1.53732 50.5212 1.06643 48.0087 0.623237 45.0047C0.207746 41.9733 0 39.7066 0 38.2046C0 35.5009 1.08028 33.4254 3.24083 31.978C5.42909 30.5032 8.08824 29.7659 11.2183 29.7659C13.2126 29.7659 14.6115 29.9707 15.4147 30.3803C16.218 30.7627 16.6197 31.186 16.6197 31.6502C16.6197 32.4695 16.2042 32.8792 15.3732 32.8792C15.0962 32.8792 14.7361 32.7699 14.2929 32.5515C13.8497 32.333 12.8248 32.2237 11.2183 32.2237C8.78072 32.2237 6.71711 32.729 5.02745 33.7394C3.33778 34.7226 2.49295 36.211 2.49295 38.2046C2.49295 38.7508 2.97769 39.256 3.94717 39.7202C4.94435 40.1572 5.70608 40.3757 6.23237 40.3757ZM32.6161 45.1276C33.3086 48.8417 33.9734 51.3542 34.6104 52.665C34.8043 53.0474 34.9013 53.4161 34.9013 53.7711C34.9013 54.5904 34.4858 55 33.6548 55C33.2116 55 32.7961 54.5904 32.4083 53.7711C31.3281 51.5863 30.4555 48.3091 29.7907 43.9396C28.0457 43.9396 25.7051 44.199 22.7689 44.7179L20.7746 52.5421C20.6638 52.9791 20.5114 53.2932 20.3175 53.4843C20.1513 53.6755 19.8882 53.7711 19.5281 53.7711C18.6971 53.7711 18.2816 53.3614 18.2816 52.5421C18.2816 52.3237 18.3093 52.1598 18.3647 52.0506L20.1513 44.9637H19.5281C18.6971 44.9637 18.2816 44.5541 18.2816 43.7348C18.2816 42.9155 18.6971 42.5058 19.5281 42.5058C20.0267 42.5058 20.4422 42.4922 20.7746 42.4649C21.4394 40.0616 22.3811 37.0166 23.5999 33.3298C24.3755 30.9538 25.622 29.7659 27.3393 29.7659C27.8379 29.7659 28.3642 29.957 28.9182 30.3394C29.4999 30.6944 29.9154 31.3225 30.1647 32.2237C30.8018 34.4631 31.4389 37.6857 32.0759 41.8914C32.5191 42.0552 33.1008 42.4239 33.821 42.9974C34.5412 43.5436 34.9013 43.9942 34.9013 44.3492C34.9013 45.1685 34.4858 45.5782 33.6548 45.5782C33.4609 45.5782 33.1147 45.428 32.6161 45.1276ZM29.4168 41.4817C28.5027 35.3097 27.8102 32.2237 27.3393 32.2237C27.09 32.2237 26.91 32.292 26.7992 32.4286C26.6884 32.5378 26.6053 32.6197 26.5499 32.6743C26.4945 32.729 26.4253 32.8382 26.3422 33.0021C26.2868 33.1659 26.2452 33.2752 26.2175 33.3298C26.0513 33.6575 25.9682 33.9033 25.9682 34.0671C24.694 37.8359 23.8492 40.5122 23.4337 42.0962C25.4835 41.7412 27.4778 41.5363 29.4168 41.4817Z" fill="white"/>
<path d="M102.216 42.0962L105.207 41.2769C106.869 41.2769 107.7 42.0962 107.7 43.7348C107.7 44.9364 106.953 45.783 105.457 46.2746C103.961 46.7662 102.881 47.012 102.216 47.012C99.5568 47.012 97.5347 45.3734 96.1497 42.0962C95.3742 40.2938 94.7094 36.4978 94.1554 30.7081C93.6568 24.9184 93.1582 19.7023 92.6596 15.0596C92.2164 10.3624 91.6347 8.01375 90.9145 8.01375C90.2498 8.01375 89.4188 11.8098 88.4216 19.4019C88.2 21.2043 88.0061 22.761 87.8399 24.0718C87.7291 25.3281 87.5352 26.9394 87.2582 28.9057C87.0366 30.8173 86.8704 32.2101 86.7596 33.084C86.3164 36.7435 85.624 39.4472 84.6822 41.195C83.7404 42.8882 82.2169 43.7348 80.1118 43.7348C77.4526 43.7348 75.4306 42.0962 74.0456 38.8191C73.2146 37.0166 72.0789 33.3025 70.6386 27.6767C69.2536 21.9963 67.9517 16.8894 66.7329 12.356C65.5696 7.82258 64.7663 5.55588 64.3231 5.55588C63.6029 5.55588 62.9935 10.9086 62.4949 21.614C62.0517 32.2647 61.8301 40.485 61.8301 46.2746C61.8301 47.8586 60.9992 48.6506 59.3372 48.6506C58.4508 48.6506 57.8137 48.4048 57.4259 47.9132C57.0381 47.367 56.8442 46.8208 56.8442 46.2746C56.8442 41.0312 57.0381 33.521 57.4259 23.7441C57.8691 13.9126 58.3954 7.84989 59.0048 5.55588C59.8912 2.27872 61.6362 0.640137 64.24 0.640137C66.8437 0.640137 68.755 2.27872 69.9738 5.55588C70.6386 7.3037 71.6634 11.0997 73.0484 16.944C74.4888 22.7337 75.8461 27.8406 77.1202 32.2648C78.3944 36.6343 79.3639 38.8191 80.0287 38.8191C80.7489 38.8191 81.3305 36.7435 81.7737 32.5925C83.6573 17.736 84.8761 9.54309 85.4301 8.01375C85.9286 6.48441 86.5657 5.28278 87.3413 4.40887C88.1723 3.53496 89.3634 3.09801 90.9145 3.09801C93.5737 3.09801 95.485 4.73659 96.6483 8.01375C97.0915 9.10614 97.5347 12.5745 97.9779 18.4187C98.4211 24.263 98.9751 29.6703 99.6399 34.6407C100.305 39.6111 101.163 42.0962 102.216 42.0962Z" fill="#EAB70E"/>
<path fill-rule="evenodd" clip-rule="evenodd" d="M105.119 40.6368H105.208C106.139 40.6368 106.956 40.8667 107.537 41.4388C108.117 42.0108 108.35 42.8168 108.35 43.7348C108.35 44.4783 108.114 45.1429 107.629 45.6913C107.155 46.2277 106.48 46.6131 105.662 46.8818C104.166 47.3734 102.997 47.652 102.216 47.652C100.739 47.652 99.4223 47.1925 98.2931 46.2775C97.1753 45.3717 96.2699 44.0437 95.5513 42.3436C95.1337 41.3722 94.7641 39.914 94.43 38.0062C94.0937 36.0861 93.7872 33.672 93.5093 30.7682L93.5088 30.7622C93.0105 24.9759 92.5123 19.7643 92.0143 15.127L92.0134 15.1189C91.7926 12.778 91.5398 11.0544 91.2606 9.927C91.1618 9.52824 91.0644 9.224 90.9729 9.0018C90.8093 9.42991 90.6263 10.0879 90.4276 10.9958C90.0181 12.8663 89.564 15.6909 89.0661 19.4814C88.8452 21.2778 88.6518 22.8305 88.4859 24.1393C88.3737 25.4073 88.1789 27.0239 87.9026 28.986C87.6816 30.8928 87.5154 32.2853 87.4043 33.1617C86.9584 36.8431 86.2547 39.6413 85.2558 41.4952L85.2517 41.5028C84.7298 42.4411 84.0318 43.1687 83.1523 43.6574C82.2752 44.1448 81.2536 44.3748 80.112 44.3748C78.6347 44.3748 77.3181 43.9154 76.1889 43.0003C75.073 42.096 74.1687 40.7708 73.4506 39.0746C72.592 37.2081 71.4452 33.4413 70.0094 27.8333L70.0076 27.8263C68.6235 22.1495 67.3229 17.0476 66.1057 12.5199L66.1038 12.5129C65.5233 10.2509 65.0373 8.57291 64.6453 7.46697C64.5591 7.22367 64.4791 7.01289 64.4055 6.83284C64.2592 7.46181 64.1135 8.39309 63.9713 9.64174C63.6691 12.2961 63.3929 16.293 63.1438 21.6417C62.7008 32.2889 62.4796 40.4983 62.4796 46.2746C62.4796 47.1708 62.2433 47.9593 61.6584 48.5167C61.0776 49.0703 60.2631 49.2906 59.3375 49.2906C58.3362 49.2906 57.4689 49.0098 56.9138 48.3061L56.9037 48.2934L56.8944 48.2802C56.4473 47.6505 56.1953 46.9787 56.1953 46.2746C56.1953 41.0185 56.3896 33.4985 56.7775 23.7191L56.7776 23.7156C56.9994 18.7958 57.2423 14.8125 57.5065 11.7688C57.7694 8.7402 58.0565 6.60021 58.3771 5.39365L58.3778 5.39089C58.8393 3.68457 59.5424 2.33375 60.5309 1.40551C61.5344 0.463252 62.7864 0 64.2403 0C65.6939 0 66.9752 0.462361 68.0525 1.38601C69.1168 2.2984 69.95 3.63255 70.5828 5.33331C71.2649 7.12763 72.2982 10.9639 73.6801 16.7949C75.1186 22.5773 76.4735 27.675 77.7447 32.0888C78.3795 34.2656 78.9309 35.8712 79.398 36.9239C79.6332 37.4539 79.8338 37.813 79.9957 38.0295C80.0021 38.0381 80.0084 38.0463 80.0145 38.0542C80.1238 37.8662 80.2495 37.5559 80.3796 37.0919C80.6558 36.1063 80.9077 34.592 81.1284 32.5254L81.129 32.5192L81.1298 32.513C82.0718 25.0832 82.848 19.3156 83.4584 15.2125C83.7636 13.1613 84.0279 11.5219 84.2512 10.2969C84.4694 9.10017 84.6564 8.25215 84.8153 7.80857C85.3309 6.23012 86.003 4.94512 86.853 3.98732L86.8604 3.97905L86.868 3.97104C87.8536 2.93455 89.2368 2.45787 90.9148 2.45787C92.3924 2.45787 93.6886 2.91792 94.7686 3.84387C95.8336 4.75692 96.6522 6.0911 97.2569 7.78968C97.5123 8.42848 97.7392 9.64597 97.9575 11.3542C98.1811 13.1039 98.4036 15.4442 98.6256 18.371C99.068 24.2052 99.6208 29.6003 100.284 34.557C100.615 37.0308 100.989 38.8443 101.397 40.0259C101.603 40.6203 101.803 41.0121 101.98 41.2435C102.067 41.3565 102.135 41.4122 102.176 41.4375C102.178 41.4389 102.18 41.4401 102.182 41.4413L105.119 40.6368ZM102.216 42.0962L105.208 41.2769C106.87 41.2769 107.701 42.0962 107.701 43.7348C107.701 44.9364 106.953 45.783 105.457 46.2746C103.961 46.7661 102.881 47.0119 102.216 47.0119C99.557 47.0119 97.535 45.3733 96.15 42.0962C95.3744 40.2937 94.7096 36.4977 94.1557 30.708C93.6571 24.9184 93.1585 19.7022 92.6599 15.0596C92.2167 10.3623 91.635 8.01369 90.9148 8.01369C90.25 8.01369 89.4191 11.8097 88.4219 19.4018C88.2003 21.2043 88.0064 22.7609 87.8402 24.0718C87.7294 25.328 87.5355 26.9393 87.2585 28.9056C87.0369 30.8173 86.8707 32.2101 86.7599 33.084C86.3167 36.7435 85.6242 39.4471 84.6825 41.195C83.7407 42.8882 82.2172 43.7348 80.112 43.7348C77.4529 43.7348 75.4308 42.0962 74.0459 38.819C73.2149 37.0166 72.0792 33.3025 70.6388 27.6767C69.2539 21.9962 67.952 16.8893 66.7332 12.3559C65.5698 7.82252 64.7666 5.55581 64.3234 5.55581C63.6032 5.55581 62.9938 10.9085 62.4952 21.6139C62.052 32.2647 61.8304 40.4849 61.8304 46.2746C61.8304 47.8585 60.9994 48.6505 59.3375 48.6505C58.4511 48.6505 57.814 48.4047 57.4262 47.9131C57.0384 47.3669 56.8445 46.8208 56.8445 46.2746C56.8445 41.0311 57.0384 33.5209 57.4262 23.7441C57.8694 13.9126 58.3957 7.84983 59.0051 5.55581C59.8915 2.27865 61.6365 0.640071 64.2403 0.640071C66.844 0.640071 68.7553 2.27865 69.9741 5.55581C70.6388 7.30363 71.6637 11.0997 73.0487 16.944C74.4891 22.7336 75.8463 27.8405 77.1205 32.2647C78.3947 36.6342 79.3642 38.819 80.0289 38.819C80.7491 38.819 81.3308 36.7435 81.774 32.5924C83.6576 17.7359 84.8763 9.54303 85.4303 8.01369C85.9289 6.48434 86.566 5.28272 87.3416 4.40881C88.1726 3.5349 89.3637 3.09794 90.9148 3.09794C93.574 3.09794 95.4852 4.73652 96.6486 8.01369C97.0918 9.10608 97.535 12.5744 97.9782 18.4187C98.4214 24.263 98.9754 29.6703 99.6401 34.6406C100.305 39.611 101.164 42.0962 102.216 42.0962ZM79.8968 38.2145C79.8968 38.2143 79.899 38.2122 79.9035 38.2093C79.8991 38.2133 79.8968 38.2148 79.8968 38.2145ZM64.0305 6.09739C64.0309 6.09785 64.0314 6.09838 64.0319 6.09893C64.023 6.09095 64.0224 6.0888 64.0305 6.09739ZM91.1996 8.5483C91.1997 8.54866 91.1966 8.5525 91.1903 8.55851C91.1964 8.55093 91.1995 8.54794 91.1996 8.5483ZM90.76 8.61314C90.7546 8.60918 90.752 8.60647 90.752 8.6061C90.7521 8.60574 90.7548 8.60772 90.76 8.61314Z" fill="white"/>
</svg>
