<svg width="122" height="122" viewBox="0 0 122 122" fill="none" xmlns="http://www.w3.org/2000/svg">
<ellipse cx="61" cy="60.5" rx="61" ry="57.5" fill="#FFC700"/>
<circle cx="41.5" cy="90.5" r="3.5" fill="black"/>
<circle cx="67.5" cy="90.5" r="3.5" fill="black"/>
<ellipse cx="61" cy="60.5" rx="61" ry="57.5" fill="#EAB70E"/>
<path fill-rule="evenodd" clip-rule="evenodd" d="M93.616 77.48L89.008 78.76C87.3867 78.76 86.064 74.8773 85.04 67.112C84.016 59.3467 83.1627 50.8987 82.48 41.768C81.7973 32.6373 81.1147 27.2187 80.432 25.512C78.64 20.392 75.696 17.832 71.6 17.832C69.2107 17.832 67.376 18.5147 66.096 19.88C64.9013 21.2453 63.92 23.1227 63.152 25.512C62.2987 27.9013 60.4213 40.7013 57.52 63.912C56.8373 70.3973 55.9413 73.64 54.832 73.64C53.808 73.64 52.3147 70.2267 50.352 63.4C48.3893 56.488 46.2987 48.5093 44.08 39.464C41.9467 30.3333 40.368 24.4027 39.344 21.672C37.4667 16.552 34.5227 13.992 30.512 13.992C26.5013 13.992 23.8133 16.552 22.448 21.672C21.5093 25.256 20.6987 34.728 20.016 50.088C19.4187 65.3627 19.12 77.096 19.12 85.288C19.12 86.1413 19.4187 86.9947 20.016 87.848C20.6133 88.616 21.5947 89 22.96 89C25.52 89 26.8 87.7627 26.8 85.288C26.8 76.2427 27.1413 63.4 27.824 46.76C28.592 30.0347 29.5307 21.672 30.64 21.672C31.3227 21.672 32.56 25.2133 34.352 32.296C36.2293 39.3787 38.2347 47.3573 40.368 56.232C42.5867 65.0213 44.336 70.824 45.616 73.64C47.7493 78.76 50.864 81.32 54.96 81.32C58.2027 81.32 60.5493 79.9973 62 77.352C63.4507 74.6213 64.5173 70.3973 65.2 64.68C65.3707 63.3147 65.6267 61.1387 65.968 58.152C66.3947 55.08 66.6933 52.5627 66.864 50.6C67.12 48.552 67.4187 46.12 67.76 43.304C69.296 31.4427 70.576 25.512 71.6 25.512C72.7093 25.512 73.6053 29.1813 74.288 36.52C75.056 43.7733 75.824 51.9227 76.592 60.968C77.4453 70.0133 78.4693 75.944 79.664 78.76C81.4811 83.121 84.0101 85.6248 87.2512 86.2712C87.5537 87.3842 88.2153 88.5712 89.236 89.832C90.0893 90.856 91.092 91.816 92.244 92.712C93.396 93.5654 94.9107 94.2907 96.788 94.888C98.708 95.4427 100.82 95.72 103.124 95.72C105.428 95.72 107.583 94.9094 109.588 93.288C111.636 91.6667 112.66 89.4907 112.66 86.76C112.66 82.9627 111.657 79.8907 109.652 77.544C107.647 75.1547 105.023 73.96 101.78 73.96C100.031 73.96 98.4093 74.408 96.916 75.304C95.596 76.0805 94.8765 76.8393 94.7577 77.5804C94.4106 77.5135 94.03 77.48 93.616 77.48ZM97.1909 79.5671C97.3676 80.063 97.456 80.6473 97.456 81.32C97.456 83.1973 96.304 84.52 94 85.288C92.9794 85.6282 92.0844 85.8931 91.3149 86.0826C91.3819 86.2222 91.4569 86.3627 91.54 86.504C92.0093 87.2294 92.6707 88.0187 93.524 88.872C94.3773 89.6827 95.6573 90.3867 97.364 90.984C99.0707 91.5814 100.777 91.88 102.484 91.88C104.233 91.88 105.727 91.432 106.964 90.536C108.201 89.64 108.82 88.3814 108.82 86.76C108.82 84.072 108.201 81.9174 106.964 80.296C105.727 78.632 103.999 77.8 101.78 77.8C100.756 77.8 99.7107 78.12 98.644 78.76C98.0287 79.1446 97.5443 79.4136 97.1909 79.5671Z" fill="black"/>
<circle cx="41.5" cy="90.5" r="3.5" fill="black"/>
<circle cx="67.5" cy="90.5" r="3.5" fill="black"/>
</svg>
